<svg id="Layer_1" enable-background="new 0 0 510 510" height="512" viewBox="0 0 510 510" width="512" xmlns="http://www.w3.org/2000/svg" xmlns:xlink="http://www.w3.org/1999/xlink"><linearGradient id="SVGID_1_" gradientUnits="userSpaceOnUse" x1="66" x2="441.064" y1="66" y2="441.064"><stop offset="0" stop-color="#ffd945"/><stop offset=".3043" stop-color="#ffcd3e"/><stop offset=".8558" stop-color="#ffad2b"/><stop offset="1" stop-color="#ffa325"/></linearGradient><linearGradient id="lg1"><stop offset="0" stop-color="#ffd945" stop-opacity="0"/><stop offset="1" stop-color="#fbed21"/></linearGradient><linearGradient id="SVGID_2_" gradientUnits="userSpaceOnUse" x1="267.346" x2="68.566" xlink:href="#lg1" y1="267.346" y2="68.566"/><linearGradient id="lg2"><stop offset="0" stop-color="#e87264" stop-opacity="0"/><stop offset="1" stop-color="#ff7044"/></linearGradient><linearGradient id="SVGID_3_" gradientUnits="userSpaceOnUse" x1="259.243" x2="575.728" xlink:href="#lg2" y1="259.022" y2="559.007"/><linearGradient id="lg3"><stop offset="0" stop-color="#8a7889"/><stop offset="1" stop-color="#6e566e"/></linearGradient><linearGradient id="SVGID_4_" gradientUnits="userSpaceOnUse" x1="398" x2="87.719" xlink:href="#lg3" y1="398" y2="87.719"/><linearGradient id="SVGID_5_" gradientTransform="matrix(-1 0 0 -1 -1618 510)" gradientUnits="userSpaceOnUse" x1="-1740.035" x2="-2028.542" xlink:href="#lg3" y1="387.965" y2="99.458"/><radialGradient id="SVGID_6_" cx="-1873" cy="255" gradientTransform="matrix(-1 0 0 -1 -1618 510)" gradientUnits="userSpaceOnUse" r="219.008"><stop offset="0" stop-color="#6e566e" stop-opacity="0"/><stop offset=".5262" stop-color="#6d546d" stop-opacity=".526"/><stop offset=".7797" stop-color="#684c68" stop-opacity=".78"/><stop offset=".9745" stop-color="#5f3f60" stop-opacity=".975"/><stop offset="1" stop-color="#5e3d5f"/></radialGradient><radialGradient id="SVGID_7_" cx="254.994" cy="255" gradientUnits="userSpaceOnUse" r="204.824"><stop offset="0" stop-color="#ff7044"/><stop offset=".2185" stop-color="#ff6b41"/><stop offset=".4693" stop-color="#fd5d38"/><stop offset=".7347" stop-color="#fb4728"/><stop offset="1" stop-color="#f82814"/></radialGradient><linearGradient id="SVGID_8_" gradientUnits="userSpaceOnUse" x1="209.599" x2="382.882" y1="209.599" y2="382.882"><stop offset="0" stop-color="#4ab272"/><stop offset="1" stop-color="#077565"/></linearGradient><radialGradient id="SVGID_9_" cx="262.5" cy="266.999" gradientUnits="userSpaceOnUse" r="142.675"><stop offset="0" stop-color="#005a01" stop-opacity="0"/><stop offset=".8587" stop-color="#005a01" stop-opacity=".859"/><stop offset="1" stop-color="#005a01"/></radialGradient><linearGradient id="lg4"><stop offset="0" stop-color="#005a01" stop-opacity="0"/><stop offset="1" stop-color="#005a01"/></linearGradient><linearGradient id="SVGID_10_" gradientUnits="userSpaceOnUse" x1="338.127" x2="224.127" xlink:href="#lg4" y1="337.866" y2="229.866"/><linearGradient id="SVGID_11_" gradientUnits="userSpaceOnUse" x1="194.353" x2="156.103" xlink:href="#lg4" y1="306.117" y2="241.117"/><linearGradient id="SVGID_12_" gradientUnits="userSpaceOnUse" x1="282.699" x2="251.45" xlink:href="#lg4" y1="189.184" y2="136.082"/><linearGradient id="lg5"><stop offset="0" stop-color="#ffd945"/><stop offset=".4169" stop-color="#ffd744"/><stop offset=".6278" stop-color="#ffcf3f"/><stop offset=".7926" stop-color="#ffc237"/><stop offset=".9326" stop-color="#ffaf2c"/><stop offset="1" stop-color="#ffa325"/></linearGradient><radialGradient id="SVGID_13_" cx="230.096" cy="221.793" gradientUnits="userSpaceOnUse" r="107.743" xlink:href="#lg5"/><linearGradient id="SVGID_14_" gradientUnits="userSpaceOnUse" x1="270.021" x2="166.58" xlink:href="#lg1" y1="270.022" y2="166.58"/><linearGradient id="SVGID_15_" gradientUnits="userSpaceOnUse" x1="291.733" x2="452.814" xlink:href="#lg2" y1="258.248" y2="121.905"/><linearGradient id="lg6"><stop offset="0" stop-color="#fff" stop-opacity="0"/><stop offset="1" stop-color="#fff"/></linearGradient><linearGradient id="SVGID_16_" gradientUnits="userSpaceOnUse" x1="255" x2="255" xlink:href="#lg6" y1="228.407" y2="146.867"/><linearGradient id="SVGID_17_" gradientUnits="userSpaceOnUse" x1="265.068" x2="249.401" xlink:href="#lg2" y1="317.209" y2="227.209"/><linearGradient id="SVGID_18_" gradientUnits="userSpaceOnUse" x1="298.83" x2="245.497" xlink:href="#lg2" y1="216.341" y2="207.341"/><linearGradient id="SVGID_19_" gradientUnits="userSpaceOnUse" x1="246" x2="261.463" xlink:href="#lg5" y1="255" y2="255"/><linearGradient id="SVGID_20_" gradientUnits="userSpaceOnUse" x1="262.493" x2="238.177" xlink:href="#lg1" y1="255.672" y2="252.555"/><linearGradient id="SVGID_21_" gradientUnits="userSpaceOnUse" x1="272.414" x2="254.081" xlink:href="#lg2" y1="189.574" y2="164.574"/><linearGradient id="SVGID_22_" gradientUnits="userSpaceOnUse" x1="272.414" x2="254.081" xlink:href="#lg2" y1="298.24" y2="273.24"/><radialGradient id="SVGID_23_" cx="249.65" cy="153.298" gradientUnits="userSpaceOnUse" r="23.146" xlink:href="#lg5"/><linearGradient id="SVGID_24_" gradientUnits="userSpaceOnUse" x1="258.227" x2="236.005" xlink:href="#lg1" y1="163.659" y2="141.437"/><linearGradient id="SVGID_25_" gradientUnits="userSpaceOnUse" x1="262.891" x2="297.496" xlink:href="#lg2" y1="161.13" y2="131.839"/><linearGradient id="SVGID_26_" gradientUnits="userSpaceOnUse" x1="255" x2="255" xlink:href="#lg6" y1="154.719" y2="137.202"/><radialGradient id="SVGID_27_" cx="249.65" cy="342.434" gradientUnits="userSpaceOnUse" r="23.146" xlink:href="#lg5"/><linearGradient id="SVGID_28_" gradientUnits="userSpaceOnUse" x1="258.227" x2="236.005" xlink:href="#lg1" y1="352.795" y2="330.573"/><linearGradient id="SVGID_29_" gradientUnits="userSpaceOnUse" x1="262.891" x2="297.496" xlink:href="#lg2" y1="350.266" y2="320.976"/><linearGradient id="SVGID_30_" gradientUnits="userSpaceOnUse" x1="255" x2="255" xlink:href="#lg6" y1="343.855" y2="326.338"/><linearGradient id="SVGID_31_" gradientTransform="matrix(0 1 1 0 -1064 1064)" gradientUnits="userSpaceOnUse" x1="-818" x2="-802.537" xlink:href="#lg5" y1="1319" y2="1319"/><linearGradient id="SVGID_32_" gradientTransform="matrix(0 1 1 0 -1064 1064)" gradientUnits="userSpaceOnUse" x1="-801.507" x2="-825.823" xlink:href="#lg1" y1="1319.672" y2="1316.555"/><linearGradient id="SVGID_33_" gradientUnits="userSpaceOnUse" x1="188.935" x2="172.268" xlink:href="#lg2" y1="262.433" y2="257.099"/><linearGradient id="SVGID_34_" gradientUnits="userSpaceOnUse" x1="297.828" x2="281.161" xlink:href="#lg2" y1="262.433" y2="257.099"/><radialGradient id="SVGID_35_" cx="344.218" cy="247.866" gradientUnits="userSpaceOnUse" r="23.146" xlink:href="#lg5"/><linearGradient id="SVGID_36_" gradientUnits="userSpaceOnUse" x1="352.795" x2="330.573" xlink:href="#lg1" y1="258.227" y2="236.005"/><linearGradient id="SVGID_37_" gradientUnits="userSpaceOnUse" x1="357.459" x2="392.064" xlink:href="#lg2" y1="255.698" y2="226.407"/><linearGradient id="SVGID_38_" gradientUnits="userSpaceOnUse" x1="349.568" x2="349.568" xlink:href="#lg6" y1="249.287" y2="231.77"/><radialGradient id="SVGID_39_" cx="155.082" cy="247.866" gradientUnits="userSpaceOnUse" r="23.146" xlink:href="#lg5"/><linearGradient id="SVGID_40_" gradientUnits="userSpaceOnUse" x1="163.659" x2="141.437" xlink:href="#lg1" y1="258.227" y2="236.005"/><linearGradient id="SVGID_41_" gradientUnits="userSpaceOnUse" x1="168.323" x2="202.928" xlink:href="#lg2" y1="255.698" y2="226.408"/><linearGradient id="SVGID_42_" gradientUnits="userSpaceOnUse" x1="160.432" x2="160.432" xlink:href="#lg6" y1="249.287" y2="231.77"/><radialGradient id="SVGID_43_" cx="245.784" cy="242.711" gradientUnits="userSpaceOnUse" r="39.872" xlink:href="#lg5"/><linearGradient id="SVGID_44_" gradientUnits="userSpaceOnUse" x1="260.559" x2="222.279" xlink:href="#lg1" y1="260.559" y2="222.279"/><linearGradient id="SVGID_45_" gradientUnits="userSpaceOnUse" x1="268.594" x2="328.204" xlink:href="#lg2" y1="256.202" y2="205.746"/><linearGradient id="SVGID_46_" gradientUnits="userSpaceOnUse" x1="255" x2="255" xlink:href="#lg6" y1="245.159" y2="214.984"/><linearGradient id="lg7"><stop offset="0" stop-color="#6e566e" stop-opacity="0"/><stop offset="1" stop-color="#6e566e"/></linearGradient><linearGradient id="SVGID_47_" gradientUnits="userSpaceOnUse" x1="395.452" x2="346.441" xlink:href="#lg7" y1="152.548" y2="103.537"/><linearGradient id="lg8"><stop offset="0" stop-color="#e4f2ff"/><stop offset="1" stop-color="#b2cbff"/></linearGradient><linearGradient id="SVGID_48_" gradientUnits="userSpaceOnUse" x1="341.471" x2="384.424" xlink:href="#lg8" y1="120.043" y2="120.043"/><linearGradient id="SVGID_49_" gradientUnits="userSpaceOnUse" x1="366.678" x2="340.987" xlink:href="#lg6" y1="123.774" y2="98.083"/><linearGradient id="lg9"><stop offset="0" stop-color="#3f3ced" stop-opacity="0"/><stop offset=".2796" stop-color="#3c3de4" stop-opacity=".28"/><stop offset=".7305" stop-color="#3541cc" stop-opacity=".731"/><stop offset="1" stop-color="#2f43bb"/></linearGradient><linearGradient id="SVGID_50_" gradientUnits="userSpaceOnUse" x1="372.071" x2="412.077" xlink:href="#lg9" y1="120.85" y2="86.987"/><linearGradient id="SVGID_51_" gradientUnits="userSpaceOnUse" x1="362.947" x2="362.947" xlink:href="#lg6" y1="116.771" y2="96.52"/><linearGradient id="SVGID_52_" gradientUnits="userSpaceOnUse" x1="249.329" x2="200.318" xlink:href="#lg7" y1="452.603" y2="403.592"/><linearGradient id="SVGID_53_" gradientUnits="userSpaceOnUse" x1="195.348" x2="238.3" xlink:href="#lg8" y1="420.098" y2="420.098"/><linearGradient id="SVGID_54_" gradientUnits="userSpaceOnUse" x1="220.555" x2="194.864" xlink:href="#lg6" y1="423.829" y2="398.138"/><linearGradient id="SVGID_55_" gradientUnits="userSpaceOnUse" x1="225.948" x2="265.954" xlink:href="#lg9" y1="420.905" y2="387.043"/><linearGradient id="SVGID_56_" gradientUnits="userSpaceOnUse" x1="216.824" x2="216.824" xlink:href="#lg6" y1="416.827" y2="396.576"/><linearGradient id="SVGID_57_" gradientUnits="userSpaceOnUse" x1="277.588" x2="-16.396" xlink:href="#lg6" y1="298.679" y2="-269.791"/><circle cx="255" cy="255" fill="url(#SVGID_1_)" r="255"/><circle cx="255" cy="255" fill="url(#SVGID_2_)" r="240.258"/><path d="m255 0c-140.833 0-255 114.167-255 255s114.167 255 255 255 255-114.167 255-255-114.167-255-255-255zm0 495.258c-132.691 0-240.258-107.567-240.258-240.258s107.567-240.258 240.258-240.258 240.258 107.567 240.258 240.258-107.567 240.258-240.258 240.258z" fill="url(#SVGID_3_)"/><circle cx="255" cy="255" fill="url(#SVGID_4_)" r="220.766"/><circle cx="255" cy="255" fill="url(#SVGID_5_)" r="205.273"/><circle cx="255" cy="255" fill="url(#SVGID_6_)" r="205.273"/><path d="m459.367 274.255-198.94-19.317 198.506-23.378c-1.721-15.14-5.085-29.78-9.917-43.737l-189.82 64.834 168.704-108.35c-8.107-12.637-17.565-24.322-28.164-34.862l-141.89 141.158 105.638-169.884c-12.602-7.861-26.118-14.392-40.353-19.399l-67.565 188.358 21.143-198.809c-7.135-.75-14.376-1.142-21.709-1.142-7.777 0-15.448.448-23 1.29l21.146 198.838-68.986-187.574c-14.119 5.192-27.509 11.889-39.976 19.9l106.838 168.78-145.018-137.153c-10.227 10.789-19.293 22.689-27.002 35.498l170.343 103.417-189.816-60.532c-4.485 13.968-7.512 28.586-8.908 43.679l197.645 19.192-197.217 23.226c1.7 15.05 5.02 29.607 9.794 43.49l188.654-64.436-167.772 107.752c8.025 12.605 17.385 24.276 27.886 34.811l141.237-140.508-105.273 169.296c12.528 7.909 25.97 14.5 40.134 19.578l67.419-187.949-21.128 198.662c7.552.842 15.223 1.29 23 1.29 7.333 0 14.575-.392 21.709-1.142l-21.162-198.986 69.139 187.987c14.191-5.121 27.655-11.761 40.197-19.725l-107.211-169.369 145.707 137.805c10.325-10.798 19.485-22.721 27.274-35.567l-171.304-104 191 60.909c4.539-14.043 7.606-28.746 9.018-43.931z" fill="url(#SVGID_7_)"/><circle cx="255" cy="255" fill="url(#SVGID_8_)" r="116.51"/><circle cx="255" cy="255" fill="url(#SVGID_9_)" r="116.51"/><path d="m474.651 352.466-156.394-156.394c-15.786-16.938-38.278-27.543-63.258-27.543-47.756 0-86.471 38.715-86.471 86.472 0 24.979 10.605 47.471 27.543 63.257l156.394 156.394c54.333-24.147 98.04-67.853 122.186-122.186z" fill="url(#SVGID_10_)"/><path d="m147.662 268.484 49.091 49.091v-49.091z" fill="url(#SVGID_11_)"/><path d="m271.405 151.716 34.391 34.391h-49.816v-34.391z" fill="url(#SVGID_12_)"/><circle cx="255" cy="255" fill="url(#SVGID_13_)" r="86.471"/><circle cx="255" cy="255" fill="url(#SVGID_14_)" r="77.187"/><path d="m293.681 177.648c5.832 11.64 9.12 24.775 9.12 38.681 0 47.757-38.715 86.472-86.472 86.472-13.906 0-27.041-3.288-38.681-9.12 14.197 28.335 43.5 47.79 77.351 47.79 47.757 0 86.472-38.715 86.472-86.471 0-33.851-19.454-63.154-47.79-77.352z" fill="url(#SVGID_15_)"/><path d="m313.469 217.992c0 22.189-26.178 40.178-58.469 40.178s-58.469-17.989-58.469-40.178c0-22.19 26.177-40.179 58.469-40.179s58.469 17.989 58.469 40.179z" fill="url(#SVGID_16_)"/><path d="m341.442 256.173h-172.884c.066 4.932.548 9.761 1.407 14.46l.035.033 69.368 69.369c5.072.927 10.291 1.436 15.631 1.436 47.364 0 85.812-38.085 86.443-85.298z" fill="url(#SVGID_17_)"/><path d="m339.735 237.687-67.422-67.422c-5.594-1.137-11.383-1.736-17.313-1.736v82.065h86.36c-.221-4.397-.772-8.707-1.625-12.907z" fill="url(#SVGID_18_)"/><path d="m245 155.333h20v199.333h-20z" fill="url(#SVGID_19_)"/><path d="m249.497 155.333h15.502v199.333h-15.502z" fill="url(#SVGID_20_)"/><path d="m265 196.321v-40.988h-20v20.988z" fill="url(#SVGID_21_)"/><path d="m265 304.987v-40.988h-20v20.988z" fill="url(#SVGID_22_)"/><circle cx="255" cy="160.432" fill="url(#SVGID_23_)" r="18.576"/><circle cx="255" cy="160.432" fill="url(#SVGID_24_)" r="16.582"/><path d="m263.31 143.814c1.253 2.501 1.959 5.322 1.959 8.31 0 10.26-8.317 18.577-18.577 18.577-2.987 0-5.809-.706-8.31-1.959 3.05 6.087 9.345 10.266 16.617 10.266 10.26 0 18.577-8.317 18.577-18.576.001-7.272-4.179-13.567-10.266-16.618z" fill="url(#SVGID_25_)"/><path d="m267.561 152.482c0 4.767-5.624 8.631-12.561 8.631s-12.561-3.865-12.561-8.631c0-4.767 5.624-8.632 12.561-8.632s12.561 3.864 12.561 8.632z" fill="url(#SVGID_26_)"/><circle cx="255" cy="349.568" fill="url(#SVGID_27_)" r="18.576"/><circle cx="255" cy="349.568" fill="url(#SVGID_28_)" r="16.582"/><path d="m263.31 332.951c1.253 2.501 1.959 5.323 1.959 8.31 0 6.337-3.173 11.934-8.018 15.286-2.998 2.075-6.637 3.29-10.559 3.29-2.987 0-5.809-.706-8.31-1.959 3.05 6.087 9.345 10.266 16.617 10.266 10.26 0 18.577-8.317 18.577-18.576.001-7.272-4.179-13.567-10.266-16.617z" fill="url(#SVGID_29_)"/><path d="m267.561 341.618c0 4.767-5.624 8.631-12.561 8.631s-12.561-3.865-12.561-8.631c0-4.767 5.624-8.632 12.561-8.632s12.561 3.865 12.561 8.632z" fill="url(#SVGID_30_)"/><path d="m354.667 265v-20h-199.334v20z" fill="url(#SVGID_31_)"/><path d="m354.667 265v-15.503h-199.334v15.503z" fill="url(#SVGID_32_)"/><path d="m155.333 265h40.677l-19.796-19.795s-.046-.071-.132-.205h-20.75v20z" fill="url(#SVGID_33_)"/><path d="m264.226 265h40.677l-19.795-19.795s-.046-.071-.132-.205h-20.75z" fill="url(#SVGID_34_)"/><circle cx="349.568" cy="255" fill="url(#SVGID_35_)" r="18.576"/><circle cx="349.568" cy="255" fill="url(#SVGID_36_)" r="16.582"/><path d="m357.878 238.383c1.253 2.501 1.959 5.322 1.959 8.31 0 10.259-8.317 18.577-18.576 18.577-2.987 0-5.809-.706-8.31-1.959 3.05 6.087 9.345 10.266 16.617 10.266 10.26 0 18.577-8.317 18.577-18.576 0-7.273-4.18-13.568-10.267-16.618z" fill="url(#SVGID_37_)"/><path d="m362.129 247.05c0 4.767-5.624 8.631-12.561 8.631s-12.561-3.865-12.561-8.631c0-4.767 5.624-8.632 12.561-8.632s12.561 3.865 12.561 8.632z" fill="url(#SVGID_38_)"/><circle cx="160.432" cy="255" fill="url(#SVGID_39_)" r="18.576"/><circle cx="160.432" cy="255" fill="url(#SVGID_40_)" r="16.582"/><path d="m168.742 238.383c1.253 2.501 1.959 5.322 1.959 8.31 0 6.337-3.173 11.934-8.018 15.286-2.998 2.075-6.637 3.29-10.559 3.29-2.987 0-5.809-.706-8.31-1.959 3.05 6.087 9.345 10.266 16.617 10.266 10.259 0 18.577-8.317 18.577-18.576 0-7.272-4.179-13.567-10.266-16.617z" fill="url(#SVGID_41_)"/><path d="m172.993 247.05c0 4.767-5.624 8.631-12.561 8.631s-12.561-3.865-12.561-8.631c0-4.767 5.624-8.632 12.561-8.632s12.561 3.865 12.561 8.632z" fill="url(#SVGID_42_)"/><circle cx="255" cy="255" fill="url(#SVGID_43_)" r="32"/><circle cx="255" cy="255" fill="url(#SVGID_44_)" r="28.564"/><path d="m269.315 226.375c2.158 4.308 3.375 9.169 3.375 14.315 0 17.673-14.327 32-32 32-5.146 0-10.007-1.217-14.314-3.375 5.253 10.486 16.097 17.685 28.624 17.685 17.673 0 32-14.327 32-32 0-12.527-7.199-23.371-17.685-28.625z" fill="url(#SVGID_45_)"/><path d="m276.637 241.305c0 8.212-9.688 14.869-21.638 14.869s-21.637-6.657-21.637-14.869 9.687-14.869 21.637-14.869c11.951 0 21.638 6.657 21.638 14.869z" fill="url(#SVGID_46_)"/><path d="m417.5 144.249-38.842-38.842c-3.921-4.207-9.507-6.841-15.711-6.841-11.861 0-21.476 9.615-21.476 21.476 0 6.204 2.634 11.79 6.84 15.71l38.842 38.842c13.495-5.995 24.35-16.85 30.347-30.345z" fill="url(#SVGID_47_)"/><path d="m384.423 120.043c0 11.861-9.615 21.476-21.476 21.476s-21.476-9.615-21.476-21.476 9.615-21.476 21.476-21.476 21.476 9.615 21.476 21.476z" fill="url(#SVGID_48_)"/><path d="m382.118 120.043c0 10.587-8.583 19.17-19.17 19.17s-19.17-8.583-19.17-19.17 8.583-19.17 19.17-19.17 19.17 8.583 19.17 19.17z" fill="url(#SVGID_49_)"/><path d="m372.554 100.832c1.448 2.891 2.265 6.153 2.265 9.607 0 11.861-9.615 21.476-21.476 21.476-3.454 0-6.716-.817-9.607-2.265 3.526 7.037 10.804 11.869 19.211 11.869 11.861 0 21.476-9.615 21.476-21.476 0-8.407-4.831-15.685-11.869-19.211z" fill="url(#SVGID_50_)"/><path d="m377.469 110.852c0 5.511-6.502 9.979-14.522 9.979s-14.521-4.468-14.521-9.979 6.501-9.979 14.521-9.979 14.522 4.467 14.522 9.979z" fill="url(#SVGID_51_)"/><path d="m271.377 444.305-38.842-38.842c-3.921-4.207-9.507-6.841-15.711-6.841-11.861 0-21.476 9.615-21.476 21.476 0 6.204 2.634 11.79 6.841 15.711l38.842 38.842c13.494-5.997 24.349-16.852 30.346-30.346z" fill="url(#SVGID_52_)"/><circle cx="216.824" cy="420.098" fill="url(#SVGID_53_)" r="21.476"/><circle cx="216.824" cy="420.098" fill="url(#SVGID_54_)" r="19.17"/><path d="m226.431 400.887c1.448 2.891 2.265 6.153 2.265 9.607 0 11.861-9.615 21.476-21.476 21.476-3.454 0-6.716-.817-9.607-2.265 3.526 7.037 10.804 11.869 19.211 11.869 11.861 0 21.476-9.615 21.476-21.476 0-8.407-4.831-15.685-11.869-19.211z" fill="url(#SVGID_55_)"/><path d="m231.346 410.907c0 5.511-6.502 9.979-14.521 9.979-8.02 0-14.521-4.468-14.521-9.979s6.501-9.979 14.521-9.979c8.019 0 14.521 4.468 14.521 9.979z" fill="url(#SVGID_56_)"/><circle cx="255" cy="255" fill="url(#SVGID_57_)" r="240.258"/></svg>