<svg id="Capa_1" enable-background="new 0 0 512 512" height="512" viewBox="0 0 512 512" width="512" xmlns="http://www.w3.org/2000/svg"><g><path d="m0 256c0-141.237 114.376-255.76 255.557-256 140.584-.238 255.708 114.055 256.44 254.638.465 89.302-44.798 168.062-113.733 214.225-3.802 2.546-8.73 2.633-12.674.313-38.012-22.355-82.304-35.176-129.59-35.176-47.292 0-91.59 12.824-129.604 35.184-3.93 2.311-8.84 2.236-12.628-.3-68.602-45.925-113.768-124.13-113.768-212.884z" fill="#3342ae"/><path d="m475.921 227.421c0 121.459-98.462 219.921-219.921 219.921s-219.921-98.462-219.921-219.921 98.462-219.921 219.921-219.921 219.921 98.462 219.921 219.921z" fill="#7cd2e3"/><path d="m443.706 342.074c-38.648 63.138-108.257 105.268-187.706 105.268-121.459 0-219.921-98.462-219.921-219.921 0-79.449 42.13-149.058 105.268-187.706-20.436 33.385-32.215 72.644-32.215 114.653 0 121.459 98.462 219.921 219.921 219.921 42.009 0 81.268-11.779 114.653-32.215z" fill="#44bfd7"/><path d="m430.404 284.707c0 22.091-17.909 40-40 40s-40-17.909-40-40 17.909-40 40-40c22.092 0 40 17.909 40 40z" fill="#ff9f22"/><path d="m430.404 284.707c0 5.869-1.264 11.444-3.535 16.465-5.021 2.271-10.596 3.535-16.465 3.535-22.091 0-40-17.909-40-40 0-5.869 1.264-11.443 3.535-16.465 5.021-2.271 10.596-3.535 16.465-3.535 22.092 0 40 17.909 40 40z" fill="#ffc14f"/><path d="m301.312 147.216c0 22.091-17.909 40-40 40s-40-17.909-40-40 17.909-40 40-40 40 17.909 40 40z" fill="#3342ae"/><path d="m301.312 147.216c0 5.869-1.264 11.443-3.535 16.465-5.021 2.271-10.596 3.535-16.465 3.535-22.091 0-40-17.909-40-40 0-5.869 1.264-11.443 3.535-16.465 5.021-2.271 10.596-3.535 16.465-3.535 22.092 0 40 17.909 40 40z" fill="#3d4ec6"/><path d="m192.491 324.707c0 22.091-17.909 40-40 40s-40-17.909-40-40 17.909-40 40-40 40 17.909 40 40z" fill="#5db33a"/><path d="m192.491 324.707c0 5.869-1.264 11.444-3.535 16.465-5.021 2.271-10.596 3.535-16.465 3.535-22.091 0-40-17.909-40-40 0-5.869 1.264-11.444 3.535-16.465 5.021-2.271 10.596-3.535 16.465-3.535 22.092 0 40 17.909 40 40z" fill="#6dc54a"/><path d="m376.78 68.344c0 22.091-17.909 40-40 40s-40-17.909-40-40 17.909-40 40-40c22.092 0 40 17.908 40 40z" fill="#d1462a"/><path d="m376.78 68.344c0 5.869-1.264 11.443-3.535 16.465-5.021 2.271-10.596 3.535-16.465 3.535-22.091 0-40-17.909-40-40 0-5.869 1.264-11.444 3.535-16.465 5.021-2.271 10.596-3.535 16.465-3.535 22.092 0 40 17.908 40 40z" fill="#f76937"/><path d="m457.234 155.585c0 22.091-17.909 40-40 40s-40-17.909-40-40 17.909-40 40-40 40 17.909 40 40z" fill="#894787"/><path d="m457.234 155.585c0 5.869-1.264 11.443-3.535 16.465-5.021 2.271-10.596 3.535-16.465 3.535-22.091 0-40-17.909-40-40 0-5.869 1.264-11.444 3.535-16.465 5.021-2.271 10.596-3.535 16.465-3.535 22.091 0 40 17.909 40 40z" fill="#af65ad"/><path d="m142.788 145.585c0 22.091-17.909 40-40 40s-40-17.909-40-40 17.909-40 40-40 40 17.909 40 40z" fill="#f5e8b4"/><path d="m142.788 145.585c0 5.869-1.264 11.443-3.535 16.465-5.021 2.271-10.596 3.535-16.465 3.535-22.091 0-40-17.909-40-40 0-5.869 1.264-11.443 3.535-16.465 5.021-2.271 10.596-3.535 16.465-3.535 22.091 0 40 17.909 40 40z" fill="#f9f1d2"/><path d="m150.167 77.284c-1.54 0-3.058-.709-4.038-2.046-1.632-2.228-1.148-5.356 1.08-6.988 33.181-24.3 92.938-37.268 133.205-28.905 2.704.562 4.44 3.208 3.879 5.912-.562 2.704-3.21 4.442-5.912 3.879-37.869-7.862-94.061 4.33-125.263 27.181-.891.653-1.926.967-2.951.967z" fill="#fff"/><path d="m375.244 373.79c-1.595 0-3.162-.761-4.131-2.177-1.56-2.279-.976-5.39 1.303-6.95 21.037-14.394 42.329-41.515 55.567-70.78 1.138-2.517 4.1-3.633 6.616-2.495s3.633 4.101 2.495 6.616c-13.95 30.838-36.57 59.542-59.032 74.912-.862.59-1.845.874-2.818.874z" fill="#fff"/><path d="m416.811 66.61c-42.955-42.954-100.065-66.61-160.811-66.61s-117.856 23.656-160.811 66.61-66.61 100.064-66.61 160.811c0 60.746 23.656 117.856 66.61 160.811s100.064 66.61 160.811 66.61 117.856-23.656 160.811-66.61 66.61-100.064 66.61-160.811-23.656-117.857-66.61-160.811zm-160.811-51.61c114.619 0 208.326 91.251 212.29 204.921h-424.58c3.964-113.67 97.671-204.921 212.29-204.921zm0 424.841c-114.619 0-208.326-91.251-212.29-204.921h424.58c-3.964 113.67-97.671 204.921-212.29 204.921z" fill="#ffb52d"/><path d="m113.451 468.672c36.599-77.672 65.316-187.218 79.356-246.463 5.778-24.38 32.309-41.997 63.193-41.997s57.416 17.617 63.193 41.997c14.04 59.245 42.757 168.791 79.356 246.462-40.743 27.364-89.781 43.329-142.549 43.329s-101.806-15.965-142.549-43.328z" fill="#ffcd71"/><path d="m277.614 183.208c-23.273 6.371-41.321 22.359-46.132 42.66-14.923 62.971-45.099 178.214-83.622 262.237-12.006-5.603-23.505-12.11-34.409-19.434 36.599-77.671 65.316-187.217 79.356-246.462 5.778-24.38 32.309-41.997 63.193-41.997 7.544 0 14.828 1.052 21.614 2.996z" fill="#ffc14f"/><path d="m298.331 247.019c0 23.379-18.952 42.331-42.331 42.331s-42.331-18.952-42.331-42.331 18.952-42.331 42.331-42.331 42.331 18.952 42.331 42.331z" fill="#ffb52d"/><path d="m303.629 372.336c0 26.305-21.324 47.629-47.629 47.629s-47.629-21.324-47.629-47.629 21.324-47.629 47.629-47.629 47.629 21.324 47.629 47.629z" fill="#44bfd7"/><path d="m299.545 391.659c-7.411 16.676-24.12 28.306-43.545 28.306-26.305 0-47.629-21.324-47.629-47.629 0-19.425 11.63-36.134 28.306-43.545-2.625 5.906-4.084 12.444-4.084 19.323 0 26.305 21.324 47.629 47.629 47.629 6.879 0 13.417-1.459 19.323-4.084z" fill="#2cb3cd"/><path d="m259.06 234c4.142 0 7.5 3.358 7.5 7.5v19c0 4.142-3.358 7.5-7.5 7.5-4.142 0-7.5-3.358-7.5-7.5v-19c0-4.142 3.358-7.5 7.5-7.5z" fill="#bc3f2a"/><path d="m266.56 260.835c0 4.142-3.358 7.5-7.5 7.5h-137.06v-15h137.06c4.143 0 7.5 3.358 7.5 7.5z" fill="#d1462a"/><path d="m146.503 260.835c0 5.489-4.307 10.204-10.269 11.231-9.792 1.687-25.202 4.565-40.027 8.262-16.411 4.093-33.716-4.529-34.197-17.135-.004-.093-.007-.187-.01-.281v-4.155c.003-.094.007-.187.01-.281.482-12.606 17.786-21.228 34.197-17.135 14.825 3.697 30.236 6.576 40.027 8.262 5.962 1.028 10.269 5.743 10.269 11.232z" fill="#f76937"/><path d="m319.893 382.5c0 22.091-17.909 40-40 40s-40-17.909-40-40 17.909-40 40-40 40 17.909 40 40z" fill="#f5e8b4"/><path d="m319.893 382.5c0 5.869-1.264 11.444-3.535 16.465-5.021 2.271-10.596 3.535-16.465 3.535-22.091 0-40-17.909-40-40 0-5.869 1.264-11.444 3.535-16.465 5.021-2.271 10.596-3.535 16.465-3.535 22.091 0 40 17.909 40 40z" fill="#f9f1d2"/><path d="m229.893 426.095h-31.441c-5.523 0-10-4.477-10-10 0-5.523 4.477-10 10-10h31.441c5.523 0 10 4.477 10 10 0 5.523-4.478 10-10 10z" fill="#ffb52d"/><path d="m313.549 426.095h-87.315c-5.523 0-10-4.477-10-10 0-5.523 4.477-10 10-10h87.315c5.523 0 10 4.477 10 10 0 5.523-4.478 10-10 10z" fill="#ffc14f"/></g></svg>